<svg xmlns="http://www.w3.org/2000/svg" xmlns:xlink="http://www.w3.org/1999/xlink" width="300" zoomAndPan="magnify" viewBox="0 0 224.87999 225" height="300" preserveAspectRatio="xMidYMid meet" version="1.0"><defs><clipPath id="e907b4195a"><path d="M 5.8125 5.875 L 201.066406 5.875 L 201.066406 201.125 L 5.8125 201.125 Z M 5.8125 5.875 " clip-rule="nonzero"/></clipPath><clipPath id="a1265c3d6a"><path d="M 201.066406 43.351562 L 201.066406 163.648438 C 201.066406 173.585938 197.117188 183.121094 190.089844 190.148438 C 183.058594 197.179688 173.527344 201.125 163.585938 201.125 L 43.292969 201.125 C 33.351562 201.125 23.820312 197.179688 16.792969 190.148438 C 9.761719 183.121094 5.8125 173.585938 5.8125 163.648438 L 5.8125 43.351562 C 5.8125 33.414062 9.761719 23.878906 16.792969 16.851562 C 23.820312 9.820312 33.351562 5.875 43.292969 5.875 L 163.585938 5.875 C 173.527344 5.875 183.058594 9.820312 190.089844 16.851562 C 197.117188 23.878906 201.066406 33.414062 201.066406 43.351562 Z M 201.066406 43.351562 " clip-rule="nonzero"/></clipPath><clipPath id="586fc12a2c"><path d="M 0.8125 0.875 L 196.066406 0.875 L 196.066406 196.125 L 0.8125 196.125 Z M 0.8125 0.875 " clip-rule="nonzero"/></clipPath><clipPath id="eb55378d85"><path d="M 196.066406 38.351562 L 196.066406 158.648438 C 196.066406 168.585938 192.117188 178.121094 185.089844 185.148438 C 178.058594 192.179688 168.527344 196.125 158.585938 196.125 L 38.292969 196.125 C 28.351562 196.125 18.820312 192.179688 11.792969 185.148438 C 4.761719 178.121094 0.8125 168.585938 0.8125 158.648438 L 0.8125 38.351562 C 0.8125 28.414062 4.761719 18.878906 11.792969 11.851562 C 18.820312 4.820312 28.351562 0.875 38.292969 0.875 L 158.585938 0.875 C 168.527344 0.875 178.058594 4.820312 185.089844 11.851562 C 192.117188 18.878906 196.066406 28.414062 196.066406 38.351562 Z M 196.066406 38.351562 " clip-rule="nonzero"/></clipPath><clipPath id="aad9f4b8e8"><rect x="0" width="197" y="0" height="197"/></clipPath><clipPath id="b970d194ec"><path d="M 0.265625 0.324219 L 206.613281 0.324219 L 206.613281 206.675781 L 0.265625 206.675781 Z M 0.265625 0.324219 " clip-rule="nonzero"/></clipPath><clipPath id="6c6c7a60ba"><path d="M 103.441406 0.324219 C 46.457031 0.324219 0.265625 46.519531 0.265625 103.5 C 0.265625 160.480469 46.457031 206.675781 103.441406 206.675781 C 160.421875 206.675781 206.613281 160.480469 206.613281 103.5 C 206.613281 46.519531 160.421875 0.324219 103.441406 0.324219 Z M 103.441406 0.324219 " clip-rule="nonzero"/></clipPath><clipPath id="f2674156f1"><path d="M 0.265625 0.324219 L 206.613281 0.324219 L 206.613281 206.675781 L 0.265625 206.675781 Z M 0.265625 0.324219 " clip-rule="nonzero"/></clipPath><clipPath id="a3fe0e9d78"><path d="M 103.441406 0.324219 C 46.457031 0.324219 0.265625 46.519531 0.265625 103.5 C 0.265625 160.480469 46.457031 206.675781 103.441406 206.675781 C 160.421875 206.675781 206.613281 160.480469 206.613281 103.5 C 206.613281 46.519531 160.421875 0.324219 103.441406 0.324219 Z M 103.441406 0.324219 " clip-rule="nonzero"/></clipPath><clipPath id="9e38b46cac"><rect x="0" width="207" y="0" height="207"/></clipPath><clipPath id="6d60e2a3bf"><path d="M 66 42 L 137 42 L 137 113 L 66 113 Z M 66 42 " clip-rule="nonzero"/></clipPath><clipPath id="158ffe9063"><path d="M 63.398438 146.476562 L 51.367188 37.910156 L 194.480469 22.050781 L 206.511719 130.617188 Z M 63.398438 146.476562 " clip-rule="nonzero"/></clipPath><clipPath id="fd98ec8f6f"><path d="M 63.398438 146.476562 L 51.367188 37.910156 L 194.480469 22.050781 L 206.511719 130.617188 Z M 63.398438 146.476562 " clip-rule="nonzero"/></clipPath><clipPath id="84546bcaed"><path d="M 56 32 L 205 32 L 205 133 L 56 133 Z M 56 32 " clip-rule="nonzero"/></clipPath><clipPath id="51a0beebaf"><path d="M 63.398438 146.476562 L 51.367188 37.910156 L 194.480469 22.050781 L 206.511719 130.617188 Z M 63.398438 146.476562 " clip-rule="nonzero"/></clipPath><clipPath id="4c279ed9a2"><path d="M 63.398438 146.476562 L 51.367188 37.910156 L 194.480469 22.050781 L 206.511719 130.617188 Z M 63.398438 146.476562 " clip-rule="nonzero"/></clipPath><clipPath id="5638801b93"><path d="M 123 21.675781 L 157.953125 21.675781 L 157.953125 57 L 123 57 Z M 123 21.675781 " clip-rule="nonzero"/></clipPath><clipPath id="7481348752"><path d="M 49 131 L 157.953125 131 L 157.953125 185.527344 L 49 185.527344 Z M 49 131 " clip-rule="nonzero"/></clipPath><clipPath id="76f3db2991"><path d="M 48.71875 21.675781 L 157.953125 21.675781 L 157.953125 132 L 48.71875 132 Z M 48.71875 21.675781 " clip-rule="nonzero"/></clipPath><clipPath id="510618134e"><rect x="0" width="207" y="0" height="207"/></clipPath></defs><g transform="matrix(1, 0, 0, 1, 9, 9)"><g clip-path="url(#510618134e)"><g clip-path="url(#e907b4195a)"><g clip-path="url(#a1265c3d6a)"><g transform="matrix(1, 0, 0, 1, 5, 5)"><g clip-path="url(#aad9f4b8e8)"><g clip-path="url(#586fc12a2c)"><g clip-path="url(#eb55378d85)"><path fill="#7c5cfc" d="M 0.8125 0.875 L 196.066406 0.875 L 196.066406 196.125 L 0.8125 196.125 Z M 0.8125 0.875 " fill-opacity="1" fill-rule="nonzero"/></g></g></g></g></g></g><g clip-path="url(#b970d194ec)"><g clip-path="url(#6c6c7a60ba)"><g transform="matrix(1, 0, 0, 1, 0.000000000000001776, -0.000000000000001776)"><g clip-path="url(#9e38b46cac)"><g clip-path="url(#f2674156f1)"><g clip-path="url(#a3fe0e9d78)"><path fill="#7c5cfc" d="M 0.265625 0.324219 L 206.613281 0.324219 L 206.613281 206.675781 L 0.265625 206.675781 Z M 0.265625 0.324219 " fill-opacity="1" fill-rule="nonzero"/></g></g></g></g></g></g><g clip-path="url(#6d60e2a3bf)"><g clip-path="url(#158ffe9063)"><g clip-path="url(#fd98ec8f6f)"><path fill="#f5f5f7" d="M 133.703125 65.054688 C 130.320312 56.386719 123.765625 49.558594 115.242188 45.820312 C 106.722656 42.085938 97.253906 41.890625 88.589844 45.273438 C 79.921875 48.65625 73.089844 55.214844 69.351562 63.734375 C 65.617188 72.253906 65.421875 81.722656 68.804688 90.390625 C 72.1875 99.058594 78.746094 105.886719 87.265625 109.625 C 95.789062 113.359375 105.253906 113.554688 113.921875 110.171875 C 122.589844 106.789062 129.421875 100.234375 133.15625 91.710938 C 136.894531 83.191406 137.085938 73.722656 133.703125 65.054688 Z M 88.539062 106.722656 C 72.546875 99.710938 65.242188 80.996094 72.253906 65.007812 C 79.265625 49.015625 97.980469 41.710938 113.972656 48.722656 C 129.964844 55.734375 137.269531 74.449219 130.257812 90.441406 C 123.246094 106.429688 104.53125 113.738281 88.539062 106.722656 Z M 88.539062 106.722656 " fill-opacity="1" fill-rule="nonzero"/></g></g></g><g clip-path="url(#84546bcaed)"><g clip-path="url(#51a0beebaf)"><g clip-path="url(#4c279ed9a2)"><path fill="#f5f5f7" d="M 145.589844 86.292969 C 147.210938 77.988281 146.457031 69.382812 143.304688 61.308594 C 138.917969 50.078125 130.425781 41.226562 119.382812 36.382812 C 108.339844 31.542969 96.074219 31.289062 84.839844 35.675781 C 73.609375 40.058594 64.757812 48.554688 59.914062 59.597656 C 55.074219 70.636719 54.820312 82.90625 59.207031 94.136719 C 63.589844 105.367188 72.085938 114.21875 83.128906 119.0625 C 94.171875 123.902344 106.4375 124.15625 117.667969 119.773438 C 125.742188 116.621094 132.585938 111.34375 137.59375 104.527344 L 142.5 106.679688 C 143.542969 107.136719 144.664062 107.1875 145.683594 106.898438 C 146.082031 107.878906 146.804688 108.730469 147.804688 109.28125 L 187.609375 131.238281 C 190.484375 132.832031 193.976562 132.503906 196.5 130.40625 C 199.007812 128.316406 200.753906 124.804688 201.992188 121.980469 C 203.84375 117.757812 204.617188 114.714844 204.5 112.125 C 204.351562 108.871094 202.175781 106 199.089844 104.972656 L 156.003906 90.578125 C 154.921875 90.214844 153.804688 90.261719 152.816406 90.632812 C 152.335938 89.691406 151.539062 88.902344 150.496094 88.445312 Z M 84.398438 116.160156 C 74.132812 111.660156 66.234375 103.429688 62.15625 92.984375 C 58.078125 82.542969 58.3125 71.136719 62.816406 60.867188 C 67.316406 50.601562 75.550781 42.699219 85.992188 38.625 C 96.4375 34.546875 107.84375 34.78125 118.109375 39.285156 C 128.378906 43.785156 136.277344 52.015625 140.355469 62.460938 C 144.429688 72.902344 144.195312 84.308594 139.695312 94.578125 C 135.191406 104.84375 126.960938 112.746094 116.515625 116.820312 C 106.074219 120.898438 94.667969 120.664062 84.398438 116.160156 Z M 142.59375 95.847656 C 143.515625 93.75 144.269531 91.601562 144.859375 89.429688 L 149.222656 91.34375 C 150.023438 91.695312 150.386719 92.628906 150.039062 93.429688 L 145.855469 102.964844 C 145.507812 103.761719 144.570312 104.128906 143.773438 103.777344 L 139.40625 101.863281 C 140.605469 99.957031 141.671875 97.949219 142.59375 95.847656 Z M 198.085938 107.976562 C 199.941406 108.589844 201.246094 110.316406 201.335938 112.265625 C 201.460938 114.964844 200.113281 118.378906 199.09375 120.707031 C 197.992188 123.214844 196.476562 126.308594 194.472656 127.96875 C 192.984375 129.207031 190.84375 129.40625 189.140625 128.464844 L 149.332031 106.507812 C 148.609375 106.109375 148.316406 105.242188 148.648438 104.484375 L 153.050781 94.449219 C 153.378906 93.691406 154.21875 93.320312 155 93.582031 Z M 198.085938 107.976562 " fill-opacity="1" fill-rule="nonzero"/></g></g></g><g clip-path="url(#5638801b93)"><path fill="#7c5cfc" d="M 158.160156 21.828125 L 158.160156 56.257812 C 152.257812 40.351562 139.628906 27.726562 123.734375 21.828125 Z M 158.160156 21.828125 " fill-opacity="1" fill-rule="nonzero"/></g><g clip-path="url(#7481348752)"><path fill="#f5f5f7" d="M 157.335938 131.269531 C 157.335938 161.035156 133.207031 185.164062 103.445312 185.164062 C 73.679688 185.164062 49.546875 161.035156 49.546875 131.269531 L 72.839844 131.269531 C 72.839844 148.167969 86.539062 161.875 103.445312 161.875 C 120.34375 161.875 134.042969 148.171875 134.042969 131.269531 Z M 157.335938 131.269531 " fill-opacity="1" fill-rule="nonzero"/></g><g clip-path="url(#76f3db2991)"><path fill="#f5f5f7" d="M 103.441406 21.828125 C 73.21875 21.828125 48.71875 46.328125 48.71875 76.550781 C 48.71875 86.855469 51.566406 96.496094 56.527344 104.722656 C 60.898438 111.996094 66.910156 118.160156 74.050781 122.714844 C 82.542969 128.128906 92.625 131.269531 103.441406 131.269531 C 114.257812 131.269531 124.335938 128.128906 132.828125 122.714844 C 139.96875 118.164062 145.980469 111.996094 150.351562 104.722656 C 155.308594 96.496094 158.160156 86.851562 158.160156 76.550781 C 158.160156 46.328125 133.660156 21.828125 103.441406 21.828125 Z M 103.441406 107.152344 C 98.507812 107.152344 93.847656 105.988281 89.71875 103.910156 C 82.441406 100.253906 76.824219 93.785156 74.304688 85.925781 C 73.351562 82.972656 72.835938 79.824219 72.835938 76.554688 C 72.835938 59.652344 86.535156 45.949219 103.441406 45.949219 C 120.339844 45.949219 134.039062 59.648438 134.039062 76.554688 C 134.039062 79.824219 133.523438 82.976562 132.574219 85.925781 C 130.046875 93.785156 124.433594 100.253906 117.160156 103.910156 C 113.035156 105.984375 108.375 107.152344 103.441406 107.152344 Z M 103.441406 107.152344 " fill-opacity="1" fill-rule="nonzero"/></g></g></g></svg>